<!-- Generated by IcoMoon.io -->
<svg version="1.1" xmlns="http://www.w3.org/2000/svg" width="16" height="16" viewBox="0 0 16 16">
<title>dribbble2</title>
<path d="M15.838 6.389c-0.105-0.513-0.262-1.020-0.467-1.503-0.2-0.474-0.448-0.931-0.738-1.359-0.286-0.423-0.614-0.821-0.976-1.183-0.363-0.363-0.761-0.691-1.184-0.977-0.428-0.289-0.886-0.537-1.36-0.738-0.483-0.204-0.989-0.362-1.504-0.467-0.527-0.108-1.069-0.163-1.611-0.163s-1.084 0.055-1.611 0.163c-0.513 0.104-1.019 0.263-1.503 0.467-0.474 0.201-0.931 0.449-1.359 0.738-0.423 0.285-0.822 0.614-1.183 0.977-0.362 0.361-0.69 0.76-0.976 1.183-0.289 0.427-0.537 0.884-0.738 1.359-0.205 0.484-0.361 0.99-0.467 1.503-0.107 0.526-0.162 1.069-0.162 1.61 0 0.543 0.054 1.086 0.162 1.613 0.105 0.513 0.262 1.020 0.467 1.502 0.201 0.474 0.449 0.932 0.738 1.36 0.286 0.424 0.615 0.821 0.976 1.183s0.76 0.69 1.183 0.976c0.428 0.289 0.886 0.537 1.359 0.738 0.484 0.205 0.99 0.361 1.503 0.467 0.527 0.108 1.069 0.162 1.611 0.162s1.084-0.055 1.611-0.163c0.514-0.106 1.020-0.261 1.504-0.467 0.474-0.2 0.931-0.448 1.36-0.738 0.424-0.286 0.822-0.614 1.184-0.976 0.361-0.363 0.69-0.76 0.976-1.183 0.289-0.427 0.537-0.886 0.738-1.36 0.204-0.483 0.361-0.989 0.467-1.502 0.107-0.526 0.161-1.069 0.161-1.612 0-0.541-0.055-1.083-0.162-1.609zM14.83 7.931c-0.098-0.021-2.411-0.518-4.759-0.223-0.048-0.117-0.097-0.234-0.148-0.353-0.142-0.335-0.295-0.666-0.454-0.992 2.698-1.101 3.794-2.685 3.806-2.704 0.959 1.164 1.539 2.65 1.554 4.271zM12.512 2.873c-0.017 0.027-0.99 1.508-3.569 2.474-1.168-2.146-2.451-3.85-2.554-3.986 0.516-0.125 1.056-0.193 1.611-0.193 1.73 0 3.309 0.644 4.512 1.705zM6.364 1.367c-0 0.001-0.002 0.002-0.002 0.002s-0.008 0.002-0.021 0.004c0.006-0.002 0.014-0.004 0.022-0.006zM5.085 1.821c0.091 0.122 1.354 1.835 2.537 3.937-3.28 0.872-6.128 0.838-6.308 0.834 0.444-2.116 1.865-3.87 3.771-4.771zM1.168 7.999c0-0.072 0.003-0.144 0.006-0.215 0.12 0.003 3.496 0.079 7.014-0.973 0.197 0.383 0.383 0.772 0.555 1.162-0.091 0.026-0.18 0.052-0.27 0.082-3.687 1.191-5.557 4.509-5.557 4.509s0.002 0.002 0.003 0.003c-1.088-1.21-1.75-2.81-1.75-4.566zM8 14.832c-1.654 0-3.17-0.588-4.352-1.566 0.091 0.073 0.153 0.12 0.153 0.12s1.31-2.857 5.362-4.268c0.014-0.006 0.030-0.010 0.045-0.014 0.961 2.498 1.358 4.59 1.46 5.187-0.82 0.348-1.722 0.541-2.668 0.541zM11.818 13.666c-0.070-0.413-0.434-2.418-1.329-4.88 2.205-0.352 4.117 0.252 4.258 0.299-0.305 1.903-1.395 3.546-2.928 4.582z"></path>
</svg>
