<!-- Generated by IcoMoon.io -->
<svg version="1.1" xmlns="http://www.w3.org/2000/svg" width="16" height="16" viewBox="0 0 16 16">
<title>forrst</title>
<path d="M14.967 15.486l-6.62-15.265c-0.058-0.134-0.191-0.221-0.337-0.221s-0.279 0.086-0.336 0.22l-6.642 15.265c-0.049 0.114-0.038 0.245 0.030 0.348s0.183 0.166 0.306 0.166h5.63v-3.334l-2-0.666c-0.277 0-0.5-0.223-0.5-0.5s0.223-0.5 0.5-0.5l2 0.666v-3.166c0-0.277 0.223-0.5 0.5-0.5h1c0.277 0 0.5 0.223 0.5 0.5v0.75l1.499-0.75c0.277 0 0.5 0.223 0.5 0.5s-0.223 0.5-0.5 0.5l-1.499 0.749v1.75l2.499-1.5c0.277 0 0.5 0.223 0.5 0.5s-0.223 0.5-0.5 0.5l-2.499 1.5v3.001h5.63c0.124 0 0.239-0.063 0.306-0.166s0.079-0.235 0.030-0.348z"></path>
</svg>
